<svg id="Capa_1" data-name="Capa 1" xmlns="http://www.w3.org/2000/svg" viewBox="0 0 717.57 321.01"><defs><style>.cls-1{fill:#ff4081;}</style></defs><title>LogoMesa de trabajo 1</title><path class="cls-1" d="M616.56,189.38c-2.19,4.58-4.4,10.06-7.33,15.12a24.55,24.55,0,0,1-13,11.22c-8.22,3-16.62-.31-21.05-7.88-3.75-6.41-4.85-13.39-4.95-20.64,0-1.07,0-2.14,0-2.78l-23.17-1.07c.59,3.47,1.29,7.28,1.86,11.1,2.3,15.33,4.39,30.7,3.65,46.25-.42,8.86-1.72,17.63-6.18,25.5-4.61,8.13-11.21,13.12-21.14,12.08-5.08-.53-8.78-3.37-11.76-7.25-4.86-6.33-6.74-13.84-8.27-21.47-2.37-11.8-3.09-23.77-3.52-35.76-.08-2.14,0-4.29,0-7-3.21,2.11-5.81,4-8.55,5.59-7.19,4.23-14.82,5.74-23,3.39a19.5,19.5,0,0,1-11.44-9.07c-.78-1.27-1.41-2.63-2-3.76-4.67,3.12-9.08,6.57-13.93,9.21-13.72,7.46-35.43,6.31-46.43-5.65-1.11-1.21-2.14-2.5-3.43-4-6.1,7.43-13.36,12.83-23,13.89s-18-1.34-23.59-9.33c-5.64,2.46-10.88,5.33-16.46,7.06-12.85,4-25.75,3.89-38.36-1.37A35.28,35.28,0,0,1,277,201.34c-3.52,2.75-6.9,5.57-10.46,8.13a38.68,38.68,0,0,1-27.16,7.15c-10.61-1-17.72-7.07-22.4-16.24-5.2-10.2-7.34-21.22-7.74-32.55-1.11-31.55,4.14-62.18,13.84-92.12.13-.39.21-.8.41-1.59a504.14,504.14,0,0,0-59.31-2.34l-4.92,53.44c1.05,0,2,0,3,0,10.83-.17,21.66-.47,32.49-.47,6.41,0,9.45,2.22,10.44,6.86,1.31,6.11-1.33,12.89-6.41,14.89a29.62,29.62,0,0,1-9.92,1.91c-9.83.24-19.66.09-29.5.09h-2.75c-1.51,8.5-2.65,16.76-4.48,24.86-2.22,9.8-5.78,19.13-12.14,27.13-7.56,9.51-17.7,14.43-29.48,16.17-15.9,2.35-30.74-.2-43.57-10.5a41.33,41.33,0,0,1-7.83-8.31c-3.37-4.78-3.41-10.18-1-15.44s7.13-6.42,11.55-2.61a70.45,70.45,0,0,1,7.6,8.25c7.85,9.32,21.58,12.38,32.42,6.85,6.74-3.44,10.53-9.47,13.22-16.31,3-7.53,4-15.45,4.8-23.41l.71-6.79c-3.74,0-7.23.15-10.71,0-6.1-.32-9.8-4.08-9.86-9.74-.07-6.75,3.7-11.73,9.58-12.27,4.47-.41,9-.45,13.93-.68l5-52.87a85.55,85.55,0,0,0-8.83,1.07c-6.39,1.44-13,2.5-19,4.9C97.22,83.26,95.17,93.89,99.75,104c.62,1.37,1.38,2.66,2,4a6.3,6.3,0,0,1-1.42,7.7C94.53,121.5,81,122,77.17,111.05,72.05,96.53,72.44,82.72,83,70.47c4.64-5.41,10.72-8.93,17.24-11.64,14.16-5.88,29.1-8.18,44.25-9.51,22.15-1.93,44.29-1.26,66.42.09,6.72.41,13.43,1.29,20.11,2.18,1.87.25,2.86-.08,3.79-1.73,3.4-6,7.56-11.42,13.29-15.37,6.09-4.21,12.79-6.1,20.09-3.79,6.19,2,9.36,7,11.56,12.63,3.69,9.5,3.65,19.43,2.69,29.34-2.07,21.3-9.69,40.88-19,59.88a325.13,325.13,0,0,1-27.74,45.93,6.43,6.43,0,0,0-.78,3.63,11.44,11.44,0,0,0,.89,3.36c2.83,8.29,7.53,10.86,16.12,9.3,7.38-1.34,12.45-6.05,17.27-11.2a3.7,3.7,0,0,0,.45-2.55,59.44,59.44,0,0,1,7.65-35.78c8.44-14.75,24.76-23.5,41.5-21.27,10.68,1.42,18.62,9,20.07,19.91,2.06,15.49-4.77,28.37-19.51,35.7-6.36,3.16-13.32,5.13-20,7.62-.84.31-1.72.49-2.86.8a14.93,14.93,0,0,0,8.6,7.43c8.59,3,16.91,1.76,25-1.84,2.58-1.15,5-2.58,7.54-3.89a15,15,0,0,0,7.75-8.54c2.37-6.53,8.38-10,15.12-9.77,4.88.15,6.85,2.16,6.6,7-.18,3.57-.62,7.13-.82,10.7-.14,2.41.2,4.83,2.64,6s5,.58,7.2-1.22c4.29-3.58,6.32-8.52,7.88-13.64,2.71-8.87,3.79-17.92,1.78-27.1a20.24,20.24,0,0,0-2.37-6c-1.65-2.75-4.7-2.74-6.53-.07a38.41,38.41,0,0,0-2.42,4.64c-2,4-4.83,5.46-9.64,5.08-4.32-.34-7.08-2.37-8.11-6.54-3.19-12.86,3.1-25.62,17.68-27.13,12-1.24,21.48,3.14,27.77,13.73a10.82,10.82,0,0,0,1,1.23c3-2.83,5.64-5.82,8.76-8.22,6.76-5.19,14.38-8,23.08-6.72,6.82,1,10.52,4.09,11.55,10.84s.49,13.68-4.24,19.38a9.1,9.1,0,0,1-10.83,2.73c-1.42-.64-2.54-2.3-3.37-3.75s-.9-3-1.41-4.5c-1-2.83-3.74-3.64-5.89-1.54a16.74,16.74,0,0,0-3.39,4.58,52.86,52.86,0,0,0-5,32.52c1.45,8.48,9,13.55,17.58,12.66,7-.74,12.22-4.63,17.45-8.93,5-4.1,6.39-9.14,7.06-15.34,1.07-9.89,3.34-19.66,5.28-29.44a93.1,93.1,0,0,1,2.91-10.58c1.41-4.36,4.16-7.45,9-7.81a39.12,39.12,0,0,1,8.44.07c4.4.65,6.21,3.06,5.7,7.52-.61,5.28-1.53,10.53-2.42,15.78-1.9,11.15-4,22.26-5.71,33.44a24.9,24.9,0,0,0,.62,8.91c1.13,5.09,5.21,7,9.64,4.23,3.49-2.16,6.4-5.25,9.65-7.83,3.56-2.82,4.44-6.53,4.7-10.92,2.07-34.26,8-67.76,20.52-99.87C527,64.61,531.93,54.23,539,45c4-5.21,8.39-10,14.48-12.75,12.75-5.79,22.67-1.62,27.36,11.19,3.48,9.48,3.15,19.29,1.67,29.1-3,20.22-12.46,37.6-24.08,54a241.22,241.22,0,0,1-28.7,33.25,6.79,6.79,0,0,0-2.16,4.52c-2.31,22.54-1.87,45.1-.48,67.65.45,7.38,1.37,14.74,2.13,22.1a8.87,8.87,0,0,0,.92,3.09c.42.81,1.2,2,1.84,2a3.46,3.46,0,0,0,2.64-1.44,13.53,13.53,0,0,0,2.11-5.52c.44-8.46,1.06-17,.7-25.41-.68-15.92-3.89-31.52-6.88-47.15-.5-2.62.47-5.78,1.54-8.37,1-2.39,2.89-4.45,4.58-6.49a7.65,7.65,0,0,1,6.82-2.91c8.82.62,17.62.88,26.44-.36,2.05-.29,2.45-1.18,2.88-2.87,2.21-8.7,4.32-17.44,7-26,1.74-5.68,6.28-8.39,12.14-8.8a44,44,0,0,1,5.49-.05c4.67.26,6.65,3,5.6,7.59-1.83,8.11-3.94,16.18-5.47,24.34-1.47,7.84-2.45,15.78-3.43,23.7a16.68,16.68,0,0,0,.6,5.91c.76,3.05,3.65,4.26,5.89,2.12a45,45,0,0,0,7.87-9.55c7.71-13.19,12.19-27.69,16.31-42.3,1.05-3.72,2.1-7.48,5.61-9.7,4.45-2.82,9.38-2.69,14.25-1.59,2.57.58,3.44,2.63,3,6.07q-1.72,12.11-3.65,24.19c-2.13,13.22-4.34,26.42-6.61,40.2,2.7-1.95,5-3.6,7.23-5.2,7.15-5,14.29-10.09,21.5-15,2.26-1.56,4.78-3.2,7.62-1.66s3.37,4.54,3.53,7.54c.3,5.57-1.92,9.7-6.64,12.79C658.7,201,647,208.9,635.27,216.88a5.68,5.68,0,0,0-2.17,3.25c-3.67,18.49-8.17,36.74-15.62,54.12-4.09,9.52-8.92,18.63-17.14,25.45-8,6.62-20.12,8.31-28.83,3.72-8.36-4.4-11.59-11.65-11.42-20.83.21-11.12,4.49-20.66,10.89-29.48,10.46-14.4,24-25.57,37.83-36.49,2.77-2.19,4.48-4.4,4.87-8.07C614.38,201.8,615.66,195.12,616.56,189.38ZM233.09,152.22l.65.31a3.65,3.65,0,0,1,.24-.7c10.16-17.28,18.9-35.2,24.61-54.47,3.52-11.87,5.72-24,5-36.42a33.12,33.12,0,0,0-2.09-9.4c-1-2.6-3.67-3-5.71-1.08a15.77,15.77,0,0,0-3.18,4.1c-4.46,8.55-7,17.77-9.46,27a339.81,339.81,0,0,0-9.38,55C233.35,141.82,233.33,147,233.09,152.22ZM531.5,134.33l.62.31c1.16-1.39,2.34-2.75,3.47-4.16C550.12,112.4,561,92.63,564,69.22c.66-5.19,1.26-10.44-.26-15.62-.55-1.89-1.2-3.75-3.4-4.21s-3.52,1.05-4.44,2.6a85.75,85.75,0,0,0-5.63,10.53c-6.5,15.58-10.4,31.94-14,48.36C534.51,118.67,533.07,126.51,531.5,134.33Zm76.83,102.81c-10.12,8.51-19.19,17.07-25.12,28.34-2.58,4.9-4.4,10.08-3.71,15.79.28,2.31.92,4.51,3.42,5.35a5.94,5.94,0,0,0,6.55-2,37.6,37.6,0,0,0,4.71-6.11C601.57,265.93,604.69,251.85,608.33,237.14ZM293.21,172.52c7.61-1.89,14.33-4.53,19.86-9.68a16.14,16.14,0,0,0,5.23-11c.45-5.95-4.38-10.29-10.06-8.53a16.67,16.67,0,0,0-7.28,4.42C294.83,154.63,293.2,163.13,293.21,172.52Z"/><path class="cls-1" d="M494.29,89.26c-.18,9.2-5.2,15.26-13.76,16.55a30.38,30.38,0,0,1-10.11.07c-10.24-2-14.73-13.31-9.06-22.17,5.45-8.51,21.13-10.76,28.77-4.15A11.31,11.31,0,0,1,494.29,89.26Z"/></svg>