<?xml version="1.0" encoding="utf-8"?>
<!-- Generator: Adobe Illustrator 23.0.3, SVG Export Plug-In . SVG Version: 6.00 Build 0)  -->
<svg version="1.1" id="Capa_1" xmlns="http://www.w3.org/2000/svg" xmlns:xlink="http://www.w3.org/1999/xlink" x="0px" y="0px"
	 viewBox="0 0 3137.1 1460.5" style="enable-background:new 0 0 3137.1 1460.5;" xml:space="preserve">
<style type="text/css">
	.st0{fill:url(#SVGID_1_);}
	.st1{fill:url(#SVGID_2_);}
	.st2{fill:url(#SVGID_3_);}
	.st3{fill:url(#SVGID_4_);}
	.st4{fill:url(#SVGID_5_);}
	.st5{fill:url(#SVGID_6_);}
	.st6{fill:url(#SVGID_7_);}
	.st7{fill:url(#SVGID_8_);}
	.st8{fill:url(#SVGID_9_);}
	.st9{fill:url(#SVGID_10_);}
	.st10{fill:url(#SVGID_11_);}
	.st11{fill:url(#SVGID_12_);}
	.st12{fill:url(#SVGID_13_);}
	.st13{fill:url(#SVGID_14_);}
	.st14{fill:url(#SVGID_15_);}
	.st15{fill:url(#SVGID_16_);}
	.st16{fill:url(#SVGID_17_);}
	.st17{fill:none;stroke:url(#SVGID_18_);stroke-miterlimit:10;}
	.st18{fill:none;stroke:url(#SVGID_19_);stroke-miterlimit:10;}
	.st19{fill:none;stroke:url(#SVGID_20_);stroke-miterlimit:10;}
	.st20{fill:none;stroke:url(#SVGID_21_);stroke-miterlimit:10;}
	.st21{fill:none;stroke:url(#SVGID_22_);stroke-miterlimit:10;}
	.st22{fill:none;stroke:url(#SVGID_23_);stroke-miterlimit:10;}
	.st23{fill:none;stroke:url(#SVGID_24_);stroke-miterlimit:10;}
	.st24{fill:none;stroke:url(#SVGID_25_);stroke-miterlimit:10;}
	.st25{fill:none;stroke:url(#SVGID_26_);stroke-miterlimit:10;}
	.st26{fill:none;stroke:url(#SVGID_27_);stroke-miterlimit:10;}
	.st27{fill:none;stroke:url(#SVGID_28_);stroke-miterlimit:10;}
	.st28{fill:none;stroke:url(#SVGID_29_);stroke-miterlimit:10;}
	.st29{fill:none;stroke:url(#SVGID_30_);stroke-miterlimit:10;}
	.st30{fill:none;stroke:url(#SVGID_31_);stroke-miterlimit:10;}
	.st31{fill:none;stroke:url(#SVGID_32_);stroke-miterlimit:10;}
	.st32{fill:none;stroke:url(#SVGID_33_);stroke-miterlimit:10;}
	.st33{fill:#EC9038;}
</style>
<title>LogoMesa de trabajo 3 copia 8</title>
<linearGradient id="SVGID_1_" gradientUnits="userSpaceOnUse" x1="1.000000e-04" y1="729.1406" x2="3137.1101" y2="729.1406">
	<stop  offset="0" style="stop-color:#EC602B"/>
	<stop  offset="0.4" style="stop-color:#EC602B"/>
	<stop  offset="1" style="stop-color:#EBBF45"/>
</linearGradient>
<path class="st0" d="M2830.1,842.9c-11.1,24.2-22.2,53.2-37,79.9c-14.4,27.4-37.7,48.5-65.7,59.3c-41.5,15.8-84-1.6-106.4-41.7
	c-18.9-33.9-24.5-70.8-25-109.1v-14.7l-117.1-5.7c3,18.3,6.5,38.5,9.4,58.7c11.6,81,22.2,162.3,18.4,244.4
	c-2.1,46.8-8.7,93.2-31.2,134.8c-23.3,43-56.6,69.3-106.8,63.8c-25.7-2.8-44.4-17.8-59.4-38.3c-24.6-33.4-34.1-73.2-41.8-113.5
	c-12-62.4-15.6-125.6-17.8-189c-0.4-11.3,0-22.7,0-37c-16.2,11.1-29.4,21.1-43.2,29.5c-36.3,22.4-74.9,30.3-116.2,18
	c-24.5-7.5-45.2-24.7-57.8-47.9c-3.9-6.7-7.1-13.9-10.1-19.9c-23.6,16.5-45.9,34.7-70.4,48.7c-69.3,39.4-179,33.3-234.6-29.9
	c-5.6-6.4-10.8-13.2-17.3-21.1c-30.8,39.3-67.5,67.8-116.2,73.4c-48.7,5.6-90.9-7.1-119.2-49.3c-28.5,13-55,28.2-83.2,37.3
	c-64.9,21.1-130.1,20.6-193.8-7.2c-29.1-12.9-54.4-33.8-73.3-60.4c-17.8,14.5-34.9,29.4-52.9,43c-39.6,30.1-88.6,43.6-137.2,37.8
	c-53.6-5.3-89.5-37.4-113.2-85.8C784.9,847.1,774,788.8,772,728.9C766.4,562.1,792.9,400.2,842,242c0.7-2.1,1.1-4.2,2.1-8.4
	c-99.6-10.3-199.6-14.4-299.7-12.4l-24.9,282.4h15.2c54.7-0.9,109.4-2.5,164.2-2.5c32.4,0,47.7,11.7,52.7,36.3
	c6.6,32.3-6.7,68.1-32.4,78.7c-16.1,6.4-33.1,9.8-50.2,10.2c-49.7,1.3-99.3,0.5-149,0.5h-13.8c-7.6,44.9-13.4,88.6-22.6,131.4
	c-11.2,51.8-29.2,101.1-61.3,143.4c-38.2,50.3-89.4,76.3-148.9,85.5c-80.3,12.4-155.3-1.1-220.1-55.5
	c-15.1-12.7-28.4-27.4-39.6-43.9c-17-25.3-17.2-53.9-5.1-81.6c12.2-27.7,36-33.9,58.4-13.8c13.9,13.4,26.7,28,38.4,43.6
	c39.7,49.3,109,65.4,163.8,36.2c34.1-18.2,53.2-50,66.8-86.2c15.2-39.8,20.2-81.7,24.3-123.7l3.6-35.9c-18.9,0-36.5,0.8-54.1,0
	c-30.8-1.7-49.5-21.6-49.8-51.5c-0.4-35.7,18.7-62,48.4-64.8c22.6-2.2,45.5-2.4,70.4-3.6l25.2-279.4c-15,1.1-29.8,3-44.6,5.7
	c-32.3,7.6-65.7,13.2-96,25.9c-57.1,23.6-67.4,79.8-44.3,133.2c3.1,7.2,7,14.1,10.1,21.1c6.9,13.7,4,30.5-7.1,40.7
	c-29.3,30.7-97.7,33.3-117-24.6c-25.9-76.7-23.9-149.8,29.4-214.4c23.4-28.6,54.2-47.2,87.1-61.5c71.5-31.1,147-43.2,223.6-50.3
	c111.9-10.2,223.8-6.7,335.6,0.5c34,2.2,67.9,6.8,101.6,11.5c9.4,1.3,14.4-0.4,19.1-9.1c17.1-31.7,38.2-60.4,67.1-81.2
	C999.2,2,1033.1-8,1070,4.2c31.3,10.6,47.3,37,58.4,66.7c18.6,50.2,18.4,102.7,13.6,155.1c-10.5,112.6-49,216.1-96,316.5
	c-40.3,84.8-87.1,166-140.2,242.8c-3.1,5.8-4.5,12.5-3.9,19.2c0.6,6.1,2.1,12.1,4.5,17.8c14.3,43.8,38,57.4,81.4,49.1
	c37.3-7.1,62.9-32,87.3-59.2c2.3-4.1,3.1-8.8,2.3-13.5c-6.5-65.8,7.1-132,38.7-189.2c42.6-78,125.1-124.2,209.7-112.4
	c54,7.5,94.1,47.6,101.4,105.2c10.4,81.9-24.1,149.9-98.6,188.7c-32.1,16.7-67.3,27.1-101,40.3c-4.3,1.6-8.7,2.6-14.4,4.2
	c9,18.6,24.6,32.7,43.5,39.3c43.4,15.8,85.4,9.3,126.3-9.7c13-6.1,25.3-13.6,38.1-20.6c18.3-9,32.4-25.2,39.2-45.1
	c12-34.5,42.3-52.9,76.4-51.6c24.7,0.8,34.6,11.4,33.3,37c-0.9,18.9-3.1,37.7-4.1,56.6c-0.7,12.7,1,25.5,13.3,31.7s25.3,3,36.4-6.5
	c21.7-18.9,31.9-45,39.8-72.1c13.7-46.9,19.1-94.7,9-143.2c-2.3-11.2-6.4-21.9-12-31.7c-8.3-14.5-23.7-14.5-33-0.4
	c-4.6,7.9-8.7,16.1-12.2,24.5c-10.1,21.1-24.4,28.9-48.7,26.8c-21.8-1.8-35.7-12.5-41-34.6c-16.1-68,15.7-135.4,89.3-143.4
	c60.6-6.6,108.6,16.6,140.3,72.6c1.5,2.3,3.2,4.5,5.1,6.5c15.2-15,28.5-30.8,44.3-43.4c34.2-27.4,72.7-42.3,116.6-35.5
	c34.5,5.3,53.2,21.6,58.4,57.3c5.2,35.7,2.5,72.3-21.4,102.4c-13,17.3-35.5,23.3-54.7,14.4c-7.1-3.4-12.9-12.2-17-19.8
	c-4.2-7.7-4.5-15.8-7.1-23.8c-5.1-15-18.9-19.2-29.8-8.1c-7,7-12.8,15.2-17.1,24.2c-25.7,53-34.5,113.2-25.3,171.9
	c7.3,44.8,45.5,71.6,88.8,66.9c35.4-3.9,61.7-24.5,88.2-47.2c25.3-21.7,32.3-48.3,35.7-81.1c5.4-52.3,16.9-103.9,26.7-155.6
	c3.8-18.9,8.8-37.6,14.7-55.9c7.1-23,21-39.4,45.5-41.3c14.2-1.5,28.5-1.4,42.6,0.4c22.2,3.4,31.4,16.2,28.8,39.8
	c-3.1,27.9-7.7,55.7-12.2,83.4c-9.6,58.9-20.2,117.6-28.8,176.7c-1.7,15.8-0.6,31.7,3.1,47.1c5.7,26.9,26.3,37,48.7,22.4
	c17.6-11.4,32.3-27.7,48.8-41.4c18-15,22.4-34.5,23.7-57.7c10.5-181.1,40.4-358.1,103.7-527.8c21-56.4,45.9-111.3,81.6-160
	c20.2-27.5,42.4-52.9,73.2-67.3c64.4-30.6,114.5-8.6,138.2,59.1c17.6,50.1,15.9,101.9,8.4,153.8c-15.2,106.9-63,198.7-121.7,285.4
	c-43.1,63.1-91.7,121.9-145,175.7c-6.4,6.2-10.3,14.8-10.9,23.9c-11.7,119.1-9.4,238.4-2.4,357.6c2.3,39,6.9,77.9,10.8,116.7
	c0.6,5.7,2.2,11.2,4.6,16.3c2.1,4.3,6.1,10.6,9.3,10.6c5.3-0.3,10.2-3.1,13.3-7.6c5.6-8.8,9.2-18.7,10.7-29.2
	c2.2-44.7,5.4-89.8,3.5-134.3c-3.4-84.1-19.7-166.6-34.8-249.2c-2.5-13.8,2.4-30.5,7.8-44.2c5.1-12.6,14.6-23.5,23.1-34.3
	c8.2-11,21.2-16.8,34.5-15.4c44.6,3.3,89,4.7,133.6-1.9c10.4-1.5,12.4-6.2,14.6-15.2c11.2-46,21.8-92.2,35.4-137.4
	c8.8-30,31.7-44.3,61.3-46.5c9.2-0.7,18.5-0.8,27.7-0.3c23.6,1.4,33.6,15.8,28.3,40.1c-9.2,42.9-19.9,85.5-27.6,128.7
	c-7.4,41.4-12.4,83.4-17.3,125.3c-0.8,10.5,0.2,21.1,3,31.2c3.8,16.1,18.4,22.4,29.8,11.2c15.4-14.8,28.8-31.8,39.8-50.5
	c39-69.7,61.6-146.4,82.4-223.6c5.3-19.7,10.6-39.5,28.3-51.3c22.5-15,47.4-14.2,72-8.4c13,3,17.4,13.9,15.2,32.1
	c-5.8,42.7-11.9,85.3-18.4,127.9c-10.8,69.9-21.9,139.6-33.4,212.5c13.6-10.3,25.3-19,36.5-27.5c36.1-26.4,72.2-53.3,108.6-79.3
	c11.4-8.2,24.2-16.9,38.5-8.8s17,23.9,17.8,39.9c1.5,29.4-9.7,51.3-33.5,67.6c-60.4,41.1-119.5,82.8-178.8,125
	c-5.5,4.2-9.4,10.3-11,17.2c-18.6,97.7-41.3,194.2-78.9,286c-20.7,50.3-45.1,98.5-86.6,134.5c-40.4,35-101.7,43.9-145.7,19.7
	c-42.2-23.3-58.6-61.6-57.7-110.1c1.1-58.8,22.7-109.3,55-155.8c52.9-76.1,121.3-135.1,191.1-192.9c14-11.6,22.6-23.3,24.6-42.7
	C2819.1,908.5,2825.5,873.2,2830.1,842.9z M892.6,646.4l3.3,1.6c0.3-1.3,0.7-2.5,1.2-3.7c51.3-91.3,95.5-186,124.3-287.9
	c17.8-62.7,28.9-126.9,25.3-192.5c-1.2-17-4.7-33.8-10.6-49.7c-5.1-13.7-18.6-15.8-28.8-5.7c-6.5,6.2-11.9,13.6-16.1,21.7
	c-22.5,45.2-35.4,93.9-47.8,142.7C920,368.3,904.1,465.6,896,563.7C893.9,591.5,893.8,618.9,892.6,646.4z M2400.3,551.9l3.1,1.6
	c5.9-7.3,11.8-14.5,17.5-22c73.4-95.6,128.4-200.1,143.5-323.8c3.3-27.4,6.4-55.2-1.3-82.6c-2.8-10-6.1-19.8-17.1-22.3
	c-11.1-2.4-17.8,5.6-22.4,13.7c-10.7,17.8-20.2,36.4-28.4,55.7c-32.9,82.3-52.5,168.8-70.7,255.6
	C2415.5,469.1,2408.2,510.6,2400.3,551.9L2400.3,551.9z M2788.5,1095.3c-51.1,45-97,90.2-126.9,149.8c-13,25.9-22.2,53.3-18.7,83.5
	c1.4,12.2,4.6,23.8,17.3,28.3c12.1,4.2,25.3-0.1,33.1-10.6c9-9.9,16.9-20.7,23.8-32.3C2754.3,1247.5,2770.1,1173,2788.5,1095.3
	L2788.5,1095.3z M1196.3,753.7c38.4-10,72.4-23.9,100.3-51.2c15.7-15,25.2-35.9,26.4-58.1c2.3-31.4-22.1-54.4-50.8-45.1
	c-14,4.3-26.7,12.4-36.8,23.4C1204.5,659.2,1196.3,704.1,1196.3,753.7z"/>
<g>
	<g>
		<linearGradient id="SVGID_2_" gradientUnits="userSpaceOnUse" x1="152.457" y1="1219.9038" x2="2182.1836" y2="1219.9038">
			<stop  offset="0" style="stop-color:#EC602B"/>
			<stop  offset="0.4" style="stop-color:#EC602B"/>
			<stop  offset="1" style="stop-color:#EBBF45"/>
		</linearGradient>
		<path class="st1" d="M279.7,1138.3l-55.4,74.4v66.6h-16.4v-66.8l-55.4-74.2h19l44.8,60.8l44.8-60.8H279.7z"/>
		<linearGradient id="SVGID_3_" gradientUnits="userSpaceOnUse" x1="152.457" y1="1219.9038" x2="2182.1836" y2="1219.9038">
			<stop  offset="0" style="stop-color:#EC602B"/>
			<stop  offset="0.4" style="stop-color:#EC602B"/>
			<stop  offset="1" style="stop-color:#EBBF45"/>
		</linearGradient>
		<path class="st2" d="M315.4,1274.5c-7-4.1-12.4-10-16.2-17.7c-3.8-7.7-5.7-16.6-5.7-26.7c0-10.1,1.9-19,5.7-26.7
			c3.8-7.7,9.2-13.6,16.2-17.7c7-4.1,15.1-6.2,24.3-6.2s17.3,2.1,24.4,6.2c7.1,4.1,12.5,10,16.3,17.7c3.8,7.7,5.7,16.6,5.7,26.7
			c0,10.1-1.9,19-5.7,26.7c-3.8,7.7-9.2,13.6-16.3,17.7c-7.1,4.1-15.2,6.2-24.4,6.2S322.4,1278.6,315.4,1274.5z M361.8,1257.8
			c5.1-6.3,7.7-15.6,7.7-27.7c0-11.9-2.6-21-7.8-27.5c-5.2-6.5-12.5-9.7-22-9.7c-9.5,0-16.8,3.2-22,9.7c-5.2,6.5-7.8,15.6-7.8,27.5
			c0,12,2.6,21.2,7.7,27.6c5.1,6.4,12.5,9.6,22.1,9.6C349.3,1267.3,356.6,1264.1,361.8,1257.8z"/>
		<linearGradient id="SVGID_4_" gradientUnits="userSpaceOnUse" x1="152.457" y1="1219.9038" x2="2182.1836" y2="1219.9038">
			<stop  offset="0" style="stop-color:#EC602B"/>
			<stop  offset="0.4" style="stop-color:#EC602B"/>
			<stop  offset="1" style="stop-color:#EBBF45"/>
		</linearGradient>
		<path class="st3" d="M500.3,1181.9v97.4h-15.8v-16.6c-3.1,5.9-7.4,10.3-12.9,13.4c-5.5,3.1-11.8,4.6-18.7,4.6
			c-11.6,0-20.3-3.2-26.2-9.7c-5.9-6.5-8.8-16-8.8-28.7v-60.4h16.2v60c0,8.7,1.7,15,5.2,19.1c3.5,4.1,8.9,6.1,16.4,6.1
			c8.5,0,15.4-2.8,20.6-8.3c5.2-5.5,7.8-12.8,7.8-21.9v-55H500.3z"/>
		<linearGradient id="SVGID_5_" gradientUnits="userSpaceOnUse" x1="152.457" y1="1219.9038" x2="2182.1836" y2="1219.9038">
			<stop  offset="0" style="stop-color:#EC602B"/>
			<stop  offset="0.4" style="stop-color:#EC602B"/>
			<stop  offset="1" style="stop-color:#EBBF45"/>
		</linearGradient>
		<path class="st4" d="M593.7,1193.5l-10.6,1c-10,0.9-17.2,4.1-21.7,9.4c-4.5,5.3-6.7,11.9-6.7,19.8v55.6h-16.2v-97.4h15.8v17
			c5.5-11.3,16.2-17.7,32.2-19l5.8-0.4L593.7,1193.5z"/>
		<linearGradient id="SVGID_6_" gradientUnits="userSpaceOnUse" x1="152.457" y1="1219.9038" x2="2182.1836" y2="1219.9038">
			<stop  offset="0" style="stop-color:#EC602B"/>
			<stop  offset="0.4" style="stop-color:#EC602B"/>
			<stop  offset="1" style="stop-color:#EBBF45"/>
		</linearGradient>
		<path class="st5" d="M670.7,1268.1l5.4-12c5.2,4.1,10.5,7.1,15.9,8.9c5.4,1.8,11.5,2.7,18.3,2.7c7.2,0,12.7-1.2,16.5-3.7
			c3.8-2.5,5.7-6,5.7-10.7c0-3.9-1.3-6.9-3.8-9.2c-2.5-2.3-6.7-4.1-12.6-5.4l-16.4-3.8c-8.3-1.9-14.6-5.1-19-9.6
			c-4.4-4.5-6.6-10.1-6.6-16.8c0-8.7,3.4-15.7,10.2-21c6.8-5.3,15.9-8,27.2-8c6.8,0,13.3,1.1,19.4,3.3c6.1,2.2,11.3,5.4,15.4,9.5
			l-5.4,11.8c-8.9-7.6-18.7-11.4-29.4-11.4c-6.8,0-12.1,1.3-15.9,3.9c-3.8,2.6-5.7,6.2-5.7,10.9c0,3.9,1.2,7,3.5,9.3
			c2.3,2.3,6.1,4.1,11.3,5.3l16.6,4c9.1,2.1,15.8,5.4,20.2,9.7c4.4,4.3,6.6,10,6.6,16.9c0,8.5-3.4,15.3-10.3,20.4
			c-6.9,5.1-16.2,7.6-28.1,7.6C693.3,1280.7,680.3,1276.5,670.7,1268.1z"/>
		<linearGradient id="SVGID_7_" gradientUnits="userSpaceOnUse" x1="152.457" y1="1219.9038" x2="2182.1836" y2="1219.9038">
			<stop  offset="0" style="stop-color:#EC602B"/>
			<stop  offset="0.4" style="stop-color:#EC602B"/>
			<stop  offset="1" style="stop-color:#EBBF45"/>
		</linearGradient>
		<path class="st6" d="M832.2,1267.1l-0.8,12.8c-3.1,0.5-6.4,0.8-10,0.8c-11.7,0-20.6-3.1-26.5-9.2c-5.9-6.1-8.9-14.7-8.9-25.6
			v-51.2h-19v-12.8h19v-29.6h16.2v29.6h27.6v12.8h-27.6v50c0,15.3,7.1,23,21.2,23C826.4,1267.7,829.3,1267.5,832.2,1267.1z"/>
		<linearGradient id="SVGID_8_" gradientUnits="userSpaceOnUse" x1="152.457" y1="1219.9038" x2="2182.1836" y2="1219.9038">
			<stop  offset="0" style="stop-color:#EC602B"/>
			<stop  offset="0.4" style="stop-color:#EC602B"/>
			<stop  offset="1" style="stop-color:#EBBF45"/>
		</linearGradient>
		<path class="st7" d="M923.9,1189c6.1,6.3,9.1,16,9.1,28.9v61.4h-15.8v-16.6c-2.5,5.7-6.4,10.2-11.6,13.3c-5.2,3.1-11.2,4.7-18,4.7
			c-6.3,0-12-1.3-17.3-3.8c-5.3-2.5-9.4-6.1-12.5-10.6c-3.1-4.5-4.6-9.5-4.6-15c0-7.3,1.9-13,5.6-17.1c3.7-4.1,9.9-7,18.4-8.8
			c8.5-1.8,20.4-2.7,35.6-2.7h4.4v-6.6c0-8.1-1.7-14-5-17.7c-3.3-3.7-8.7-5.5-16.2-5.5c-11.2,0-22.3,3.5-33.4,10.4l-5.4-11.8
			c5.1-3.6,11.2-6.5,18.3-8.7c7.1-2.2,14-3.3,20.7-3.3C908.6,1179.5,917.9,1182.6,923.9,1189z M909.5,1259.8
			c5.1-5.4,7.7-12.4,7.7-20.9v-5.8h-3.6c-11.7,0-20.7,0.5-26.8,1.5c-6.1,1-10.5,2.7-13.1,5c-2.6,2.3-3.9,5.8-3.9,10.3
			c0,5.2,1.9,9.5,5.7,12.9c3.8,3.4,8.6,5.1,14.3,5.1C897.8,1267.9,904.4,1265.2,909.5,1259.8z"/>
		<linearGradient id="SVGID_9_" gradientUnits="userSpaceOnUse" x1="152.457" y1="1219.9038" x2="2182.1836" y2="1219.9038">
			<stop  offset="0" style="stop-color:#EC602B"/>
			<stop  offset="0.4" style="stop-color:#EC602B"/>
			<stop  offset="1" style="stop-color:#EBBF45"/>
		</linearGradient>
		<path class="st8" d="M1040.4,1182.1h16.2L999,1315.3h-16.6l16.4-37.2l-41.2-96h17.2l32.6,79.6L1040.4,1182.1z"/>
		<linearGradient id="SVGID_10_" gradientUnits="userSpaceOnUse" x1="152.457" y1="1219.9038" x2="2182.1836" y2="1219.9038">
			<stop  offset="0" style="stop-color:#EC602B"/>
			<stop  offset="0.4" style="stop-color:#EC602B"/>
			<stop  offset="1" style="stop-color:#EBBF45"/>
		</linearGradient>
		<path class="st9" d="M1099.4,1258.9v14.4c0,5.6-0.9,10.7-2.7,15.3c-1.8,4.6-4.9,9.1-9.3,13.5l-7.6-5.8c5.2-5.7,8.1-11.4,8.8-17
			h-9.6v-20.4H1099.4z"/>
		<linearGradient id="SVGID_11_" gradientUnits="userSpaceOnUse" x1="152.457" y1="1219.9038" x2="2182.1836" y2="1219.9038">
			<stop  offset="0" style="stop-color:#EC602B"/>
			<stop  offset="0.4" style="stop-color:#EC602B"/>
			<stop  offset="1" style="stop-color:#EBBF45"/>
		</linearGradient>
		<path class="st10" d="M1264.6,1182.1h16.2l-57.6,133.2h-16.6l16.4-37.2l-41.2-96h17.2l32.6,79.6L1264.6,1182.1z"/>
		<linearGradient id="SVGID_12_" gradientUnits="userSpaceOnUse" x1="152.457" y1="1219.9038" x2="2182.1836" y2="1219.9038">
			<stop  offset="0" style="stop-color:#EC602B"/>
			<stop  offset="0.4" style="stop-color:#EC602B"/>
			<stop  offset="1" style="stop-color:#EBBF45"/>
		</linearGradient>
		<path class="st11" d="M1321.7,1274.5c-7-4.1-12.4-10-16.2-17.7c-3.8-7.7-5.7-16.6-5.7-26.7c0-10.1,1.9-19,5.7-26.7
			c3.8-7.7,9.2-13.6,16.2-17.7c7-4.1,15.1-6.2,24.3-6.2c9.2,0,17.3,2.1,24.4,6.2c7.1,4.1,12.5,10,16.3,17.7
			c3.8,7.7,5.7,16.6,5.7,26.7c0,10.1-1.9,19-5.7,26.7c-3.8,7.7-9.2,13.6-16.3,17.7c-7.1,4.1-15.2,6.2-24.4,6.2
			C1336.8,1280.7,1328.7,1278.6,1321.7,1274.5z M1368.1,1257.8c5.1-6.3,7.7-15.6,7.7-27.7c0-11.9-2.6-21-7.8-27.5
			c-5.2-6.5-12.5-9.7-22-9.7c-9.5,0-16.8,3.2-22,9.7c-5.2,6.5-7.8,15.6-7.8,27.5c0,12,2.6,21.2,7.7,27.6c5.1,6.4,12.5,9.6,22.1,9.6
			C1355.6,1267.3,1363,1264.1,1368.1,1257.8z"/>
		<linearGradient id="SVGID_13_" gradientUnits="userSpaceOnUse" x1="152.457" y1="1219.9038" x2="2182.1836" y2="1219.9038">
			<stop  offset="0" style="stop-color:#EC602B"/>
			<stop  offset="0.4" style="stop-color:#EC602B"/>
			<stop  offset="1" style="stop-color:#EBBF45"/>
		</linearGradient>
		<path class="st12" d="M1506.6,1181.9v97.4h-15.8v-16.6c-3.1,5.9-7.4,10.3-12.9,13.4c-5.5,3.1-11.8,4.6-18.7,4.6
			c-11.6,0-20.3-3.2-26.2-9.7c-5.9-6.5-8.8-16-8.8-28.7v-60.4h16.2v60c0,8.7,1.7,15,5.2,19.1c3.5,4.1,8.9,6.1,16.4,6.1
			c8.5,0,15.4-2.8,20.6-8.3c5.2-5.5,7.8-12.8,7.8-21.9v-55H1506.6z"/>
		<linearGradient id="SVGID_14_" gradientUnits="userSpaceOnUse" x1="152.457" y1="1219.9038" x2="2182.1836" y2="1219.9038">
			<stop  offset="0" style="stop-color:#EC602B"/>
			<stop  offset="0.4" style="stop-color:#EC602B"/>
			<stop  offset="1" style="stop-color:#EBBF45"/>
		</linearGradient>
		<path class="st13" d="M1600,1193.5l-10.6,1c-10,0.9-17.2,4.1-21.7,9.4c-4.5,5.3-6.7,11.9-6.7,19.8v55.6h-16.2v-97.4h15.8v17
			c5.5-11.3,16.2-17.7,32.2-19l5.8-0.4L1600,1193.5z"/>
		<linearGradient id="SVGID_15_" gradientUnits="userSpaceOnUse" x1="152.457" y1="1219.9038" x2="2182.1836" y2="1219.9038">
			<stop  offset="0" style="stop-color:#EC602B"/>
			<stop  offset="0.4" style="stop-color:#EC602B"/>
			<stop  offset="1" style="stop-color:#EBBF45"/>
		</linearGradient>
		<path class="st14" d="M1815.2,1181.9h16.2l-36.2,97.4h-15.6l-27.4-75.4l-27.6,75.4h-15.4l-36.2-97.4h16.8l27.6,78.2l28.2-78.2h14
			l27.8,78.2L1815.2,1181.9z"/>
		<linearGradient id="SVGID_16_" gradientUnits="userSpaceOnUse" x1="152.457" y1="1219.9038" x2="2182.1836" y2="1219.9038">
			<stop  offset="0" style="stop-color:#EC602B"/>
			<stop  offset="0.4" style="stop-color:#EC602B"/>
			<stop  offset="1" style="stop-color:#EBBF45"/>
		</linearGradient>
		<path class="st15" d="M1926.7,1189c6.1,6.3,9.1,16,9.1,28.9v61.4H1920v-16.6c-2.5,5.7-6.4,10.2-11.6,13.3
			c-5.2,3.1-11.2,4.7-18,4.7c-6.3,0-12-1.3-17.3-3.8c-5.3-2.5-9.4-6.1-12.5-10.6c-3.1-4.5-4.6-9.5-4.6-15c0-7.3,1.9-13,5.6-17.1
			c3.7-4.1,9.9-7,18.4-8.8c8.5-1.8,20.4-2.7,35.6-2.7h4.4v-6.6c0-8.1-1.7-14-5-17.7c-3.3-3.7-8.7-5.5-16.2-5.5
			c-11.2,0-22.3,3.5-33.4,10.4l-5.4-11.8c5.1-3.6,11.2-6.5,18.3-8.7c7.1-2.2,14-3.3,20.7-3.3
			C1911.4,1179.5,1920.7,1182.6,1926.7,1189z M1912.3,1259.8c5.1-5.4,7.7-12.4,7.7-20.9v-5.8h-3.6c-11.7,0-20.7,0.5-26.8,1.5
			c-6.1,1-10.5,2.7-13.1,5c-2.6,2.3-3.9,5.8-3.9,10.3c0,5.2,1.9,9.5,5.7,12.9c3.8,3.4,8.6,5.1,14.3,5.1
			C1900.6,1267.9,1907.2,1265.2,1912.3,1259.8z"/>
		<linearGradient id="SVGID_17_" gradientUnits="userSpaceOnUse" x1="152.457" y1="1219.9038" x2="2182.1836" y2="1219.9038">
			<stop  offset="0" style="stop-color:#EC602B"/>
			<stop  offset="0.4" style="stop-color:#EC602B"/>
			<stop  offset="1" style="stop-color:#EBBF45"/>
		</linearGradient>
		<path class="st16" d="M2043.2,1182.1h16.2l-57.6,133.2h-16.6l16.4-37.2l-41.2-96h17.2l32.6,79.6L2043.2,1182.1z"/>
	</g>
	<g>
		<linearGradient id="SVGID_18_" gradientUnits="userSpaceOnUse" x1="152.457" y1="1219.9038" x2="2182.1836" y2="1219.9038">
			<stop  offset="0" style="stop-color:#EC602B"/>
			<stop  offset="0.5" style="stop-color:#EB983A"/>
		</linearGradient>
		<path class="st17" d="M279.7,1138.3l-55.4,74.4v66.6h-16.4v-66.8l-55.4-74.2h19l44.8,60.8l44.8-60.8H279.7z"/>
		<linearGradient id="SVGID_19_" gradientUnits="userSpaceOnUse" x1="152.457" y1="1219.9038" x2="2182.1836" y2="1219.9038">
			<stop  offset="0" style="stop-color:#EC602B"/>
			<stop  offset="0.5" style="stop-color:#EB983A"/>
		</linearGradient>
		<path class="st18" d="M315.4,1274.5c-7-4.1-12.4-10-16.2-17.7c-3.8-7.7-5.7-16.6-5.7-26.7c0-10.1,1.9-19,5.7-26.7
			c3.8-7.7,9.2-13.6,16.2-17.7c7-4.1,15.1-6.2,24.3-6.2s17.3,2.1,24.4,6.2c7.1,4.1,12.5,10,16.3,17.7c3.8,7.7,5.7,16.6,5.7,26.7
			c0,10.1-1.9,19-5.7,26.7c-3.8,7.7-9.2,13.6-16.3,17.7c-7.1,4.1-15.2,6.2-24.4,6.2S322.4,1278.6,315.4,1274.5z M361.8,1257.8
			c5.1-6.3,7.7-15.6,7.7-27.7c0-11.9-2.6-21-7.8-27.5c-5.2-6.5-12.5-9.7-22-9.7c-9.5,0-16.8,3.2-22,9.7c-5.2,6.5-7.8,15.6-7.8,27.5
			c0,12,2.6,21.2,7.7,27.6c5.1,6.4,12.5,9.6,22.1,9.6C349.3,1267.3,356.6,1264.1,361.8,1257.8z"/>
		<linearGradient id="SVGID_20_" gradientUnits="userSpaceOnUse" x1="152.457" y1="1219.9038" x2="2182.1836" y2="1219.9038">
			<stop  offset="0" style="stop-color:#EC602B"/>
			<stop  offset="0.5" style="stop-color:#EB983A"/>
		</linearGradient>
		<path class="st19" d="M500.3,1181.9v97.4h-15.8v-16.6c-3.1,5.9-7.4,10.3-12.9,13.4c-5.5,3.1-11.8,4.6-18.7,4.6
			c-11.6,0-20.3-3.2-26.2-9.7c-5.9-6.5-8.8-16-8.8-28.7v-60.4h16.2v60c0,8.7,1.7,15,5.2,19.1c3.5,4.1,8.9,6.1,16.4,6.1
			c8.5,0,15.4-2.8,20.6-8.3c5.2-5.5,7.8-12.8,7.8-21.9v-55H500.3z"/>
		<linearGradient id="SVGID_21_" gradientUnits="userSpaceOnUse" x1="152.457" y1="1219.9038" x2="2182.1836" y2="1219.9038">
			<stop  offset="0" style="stop-color:#EC602B"/>
			<stop  offset="0.5" style="stop-color:#EB983A"/>
		</linearGradient>
		<path class="st20" d="M593.7,1193.5l-10.6,1c-10,0.9-17.2,4.1-21.7,9.4c-4.5,5.3-6.7,11.9-6.7,19.8v55.6h-16.2v-97.4h15.8v17
			c5.5-11.3,16.2-17.7,32.2-19l5.8-0.4L593.7,1193.5z"/>
		<linearGradient id="SVGID_22_" gradientUnits="userSpaceOnUse" x1="152.457" y1="1219.9038" x2="2182.1836" y2="1219.9038">
			<stop  offset="0" style="stop-color:#EC602B"/>
			<stop  offset="0.5" style="stop-color:#EB983A"/>
		</linearGradient>
		<path class="st21" d="M670.7,1268.1l5.4-12c5.2,4.1,10.5,7.1,15.9,8.9c5.4,1.8,11.5,2.7,18.3,2.7c7.2,0,12.7-1.2,16.5-3.7
			c3.8-2.5,5.7-6,5.7-10.7c0-3.9-1.3-6.9-3.8-9.2c-2.5-2.3-6.7-4.1-12.6-5.4l-16.4-3.8c-8.3-1.9-14.6-5.1-19-9.6
			c-4.4-4.5-6.6-10.1-6.6-16.8c0-8.7,3.4-15.7,10.2-21c6.8-5.3,15.9-8,27.2-8c6.8,0,13.3,1.1,19.4,3.3c6.1,2.2,11.3,5.4,15.4,9.5
			l-5.4,11.8c-8.9-7.6-18.7-11.4-29.4-11.4c-6.8,0-12.1,1.3-15.9,3.9c-3.8,2.6-5.7,6.2-5.7,10.9c0,3.9,1.2,7,3.5,9.3
			c2.3,2.3,6.1,4.1,11.3,5.3l16.6,4c9.1,2.1,15.8,5.4,20.2,9.7c4.4,4.3,6.6,10,6.6,16.9c0,8.5-3.4,15.3-10.3,20.4
			c-6.9,5.1-16.2,7.6-28.1,7.6C693.3,1280.7,680.3,1276.5,670.7,1268.1z"/>
		<linearGradient id="SVGID_23_" gradientUnits="userSpaceOnUse" x1="152.457" y1="1219.9038" x2="2182.1836" y2="1219.9038">
			<stop  offset="0" style="stop-color:#EC602B"/>
			<stop  offset="0.5" style="stop-color:#EB983A"/>
		</linearGradient>
		<path class="st22" d="M832.2,1267.1l-0.8,12.8c-3.1,0.5-6.4,0.8-10,0.8c-11.7,0-20.6-3.1-26.5-9.2c-5.9-6.1-8.9-14.7-8.9-25.6
			v-51.2h-19v-12.8h19v-29.6h16.2v29.6h27.6v12.8h-27.6v50c0,15.3,7.1,23,21.2,23C826.4,1267.7,829.3,1267.5,832.2,1267.1z"/>
		<linearGradient id="SVGID_24_" gradientUnits="userSpaceOnUse" x1="152.457" y1="1219.9038" x2="2182.1836" y2="1219.9038">
			<stop  offset="0" style="stop-color:#EC602B"/>
			<stop  offset="0.5" style="stop-color:#EB983A"/>
		</linearGradient>
		<path class="st23" d="M923.9,1189c6.1,6.3,9.1,16,9.1,28.9v61.4h-15.8v-16.6c-2.5,5.7-6.4,10.2-11.6,13.3
			c-5.2,3.1-11.2,4.7-18,4.7c-6.3,0-12-1.3-17.3-3.8c-5.3-2.5-9.4-6.1-12.5-10.6c-3.1-4.5-4.6-9.5-4.6-15c0-7.3,1.9-13,5.6-17.1
			c3.7-4.1,9.9-7,18.4-8.8c8.5-1.8,20.4-2.7,35.6-2.7h4.4v-6.6c0-8.1-1.7-14-5-17.7c-3.3-3.7-8.7-5.5-16.2-5.5
			c-11.2,0-22.3,3.5-33.4,10.4l-5.4-11.8c5.1-3.6,11.2-6.5,18.3-8.7c7.1-2.2,14-3.3,20.7-3.3C908.6,1179.5,917.9,1182.6,923.9,1189z
			 M909.5,1259.8c5.1-5.4,7.7-12.4,7.7-20.9v-5.8h-3.6c-11.7,0-20.7,0.5-26.8,1.5c-6.1,1-10.5,2.7-13.1,5c-2.6,2.3-3.9,5.8-3.9,10.3
			c0,5.2,1.9,9.5,5.7,12.9c3.8,3.4,8.6,5.1,14.3,5.1C897.8,1267.9,904.4,1265.2,909.5,1259.8z"/>
		<linearGradient id="SVGID_25_" gradientUnits="userSpaceOnUse" x1="152.457" y1="1219.9038" x2="2182.1836" y2="1219.9038">
			<stop  offset="0" style="stop-color:#EC602B"/>
			<stop  offset="0.5" style="stop-color:#EB983A"/>
		</linearGradient>
		<path class="st24" d="M1040.4,1182.1h16.2L999,1315.3h-16.6l16.4-37.2l-41.2-96h17.2l32.6,79.6L1040.4,1182.1z"/>
		<linearGradient id="SVGID_26_" gradientUnits="userSpaceOnUse" x1="152.457" y1="1219.9038" x2="2182.1836" y2="1219.9038">
			<stop  offset="0" style="stop-color:#EC602B"/>
			<stop  offset="0.5" style="stop-color:#EB983A"/>
		</linearGradient>
		<path class="st25" d="M1099.4,1258.9v14.4c0,5.6-0.9,10.7-2.7,15.3c-1.8,4.6-4.9,9.1-9.3,13.5l-7.6-5.8c5.2-5.7,8.1-11.4,8.8-17
			h-9.6v-20.4H1099.4z"/>
		<linearGradient id="SVGID_27_" gradientUnits="userSpaceOnUse" x1="152.457" y1="1219.9038" x2="2182.1836" y2="1219.9038">
			<stop  offset="0" style="stop-color:#EC602B"/>
			<stop  offset="0.5" style="stop-color:#EB983A"/>
		</linearGradient>
		<path class="st26" d="M1264.6,1182.1h16.2l-57.6,133.2h-16.6l16.4-37.2l-41.2-96h17.2l32.6,79.6L1264.6,1182.1z"/>
		<linearGradient id="SVGID_28_" gradientUnits="userSpaceOnUse" x1="152.457" y1="1219.9038" x2="2182.1836" y2="1219.9038">
			<stop  offset="0" style="stop-color:#EC602B"/>
			<stop  offset="0.5" style="stop-color:#EB983A"/>
		</linearGradient>
		<path class="st27" d="M1321.7,1274.5c-7-4.1-12.4-10-16.2-17.7c-3.8-7.7-5.7-16.6-5.7-26.7c0-10.1,1.9-19,5.7-26.7
			c3.8-7.7,9.2-13.6,16.2-17.7c7-4.1,15.1-6.2,24.3-6.2c9.2,0,17.3,2.1,24.4,6.2c7.1,4.1,12.5,10,16.3,17.7
			c3.8,7.7,5.7,16.6,5.7,26.7c0,10.1-1.9,19-5.7,26.7c-3.8,7.7-9.2,13.6-16.3,17.7c-7.1,4.1-15.2,6.2-24.4,6.2
			C1336.8,1280.7,1328.7,1278.6,1321.7,1274.5z M1368.1,1257.8c5.1-6.3,7.7-15.6,7.7-27.7c0-11.9-2.6-21-7.8-27.5
			c-5.2-6.5-12.5-9.7-22-9.7c-9.5,0-16.8,3.2-22,9.7c-5.2,6.5-7.8,15.6-7.8,27.5c0,12,2.6,21.2,7.7,27.6c5.1,6.4,12.5,9.6,22.1,9.6
			C1355.6,1267.3,1363,1264.1,1368.1,1257.8z"/>
		<linearGradient id="SVGID_29_" gradientUnits="userSpaceOnUse" x1="152.457" y1="1219.9038" x2="2182.1836" y2="1219.9038">
			<stop  offset="0" style="stop-color:#EC602B"/>
			<stop  offset="0.5" style="stop-color:#EB983A"/>
		</linearGradient>
		<path class="st28" d="M1506.6,1181.9v97.4h-15.8v-16.6c-3.1,5.9-7.4,10.3-12.9,13.4c-5.5,3.1-11.8,4.6-18.7,4.6
			c-11.6,0-20.3-3.2-26.2-9.7c-5.9-6.5-8.8-16-8.8-28.7v-60.4h16.2v60c0,8.7,1.7,15,5.2,19.1c3.5,4.1,8.9,6.1,16.4,6.1
			c8.5,0,15.4-2.8,20.6-8.3c5.2-5.5,7.8-12.8,7.8-21.9v-55H1506.6z"/>
		<linearGradient id="SVGID_30_" gradientUnits="userSpaceOnUse" x1="152.457" y1="1219.9038" x2="2182.1836" y2="1219.9038">
			<stop  offset="0" style="stop-color:#EC602B"/>
			<stop  offset="0.5" style="stop-color:#EB983A"/>
		</linearGradient>
		<path class="st29" d="M1600,1193.5l-10.6,1c-10,0.9-17.2,4.1-21.7,9.4c-4.5,5.3-6.7,11.9-6.7,19.8v55.6h-16.2v-97.4h15.8v17
			c5.5-11.3,16.2-17.7,32.2-19l5.8-0.4L1600,1193.5z"/>
		<linearGradient id="SVGID_31_" gradientUnits="userSpaceOnUse" x1="152.457" y1="1219.9038" x2="2182.1836" y2="1219.9038">
			<stop  offset="0" style="stop-color:#EC602B"/>
			<stop  offset="0.5" style="stop-color:#EB983A"/>
		</linearGradient>
		<path class="st30" d="M1815.2,1181.9h16.2l-36.2,97.4h-15.6l-27.4-75.4l-27.6,75.4h-15.4l-36.2-97.4h16.8l27.6,78.2l28.2-78.2h14
			l27.8,78.2L1815.2,1181.9z"/>
		<linearGradient id="SVGID_32_" gradientUnits="userSpaceOnUse" x1="152.457" y1="1219.9038" x2="2182.1836" y2="1219.9038">
			<stop  offset="0" style="stop-color:#EC602B"/>
			<stop  offset="0.5" style="stop-color:#EB983A"/>
		</linearGradient>
		<path class="st31" d="M1926.7,1189c6.1,6.3,9.1,16,9.1,28.9v61.4H1920v-16.6c-2.5,5.7-6.4,10.2-11.6,13.3
			c-5.2,3.1-11.2,4.7-18,4.7c-6.3,0-12-1.3-17.3-3.8c-5.3-2.5-9.4-6.1-12.5-10.6c-3.1-4.5-4.6-9.5-4.6-15c0-7.3,1.9-13,5.6-17.1
			c3.7-4.1,9.9-7,18.4-8.8c8.5-1.8,20.4-2.7,35.6-2.7h4.4v-6.6c0-8.1-1.7-14-5-17.7c-3.3-3.7-8.7-5.5-16.2-5.5
			c-11.2,0-22.3,3.5-33.4,10.4l-5.4-11.8c5.1-3.6,11.2-6.5,18.3-8.7c7.1-2.2,14-3.3,20.7-3.3
			C1911.4,1179.5,1920.7,1182.6,1926.7,1189z M1912.3,1259.8c5.1-5.4,7.7-12.4,7.7-20.9v-5.8h-3.6c-11.7,0-20.7,0.5-26.8,1.5
			c-6.1,1-10.5,2.7-13.1,5c-2.6,2.3-3.9,5.8-3.9,10.3c0,5.2,1.9,9.5,5.7,12.9c3.8,3.4,8.6,5.1,14.3,5.1
			C1900.6,1267.9,1907.2,1265.2,1912.3,1259.8z"/>
		<linearGradient id="SVGID_33_" gradientUnits="userSpaceOnUse" x1="152.457" y1="1219.9038" x2="2182.1836" y2="1219.9038">
			<stop  offset="0" style="stop-color:#EC602B"/>
			<stop  offset="0.5" style="stop-color:#EB983A"/>
		</linearGradient>
		<path class="st32" d="M2043.2,1182.1h16.2l-57.6,133.2h-16.6l16.4-37.2l-41.2-96h17.2l32.6,79.6L2043.2,1182.1z"/>
	</g>
</g>
<circle class="st33" cx="2136" cy="385.9" r="72"/>
</svg>
