<svg id="Capa_1" data-name="Capa 1" xmlns="http://www.w3.org/2000/svg" viewBox="0 0 872.04 904"><defs><style>.cls-1{fill:#717171;}.cls-2{fill:#0d4922;}</style></defs><title>logoLH</title><path class="cls-1" d="M3,2.71H356.59v354.8c-6.83.74-13.73,2.13-20.63,2.14-103.37.14-206.75-.2-310.12.39-17.66.1-26-3.7-25.84-23.72C.8,232.05.33,127.78.49,23.5.5,16.62,2.14,9.75,3,2.71Z"/><path class="cls-1" d="M357.15,549.82V903.92H2.65c-.8-7.45-2.17-14.39-2.18-21.33C.33,779.21.53,675.83.2,572.46c0-15.4,1.55-25.48,21.35-25.35,107.87.74,215.74.41,323.61.55C348.58,547.67,352,548.86,357.15,549.82Z"/><path class="cls-1" d="M513.77,904V549.63c8.1-.76,15.82-2.1,23.54-2.11,102.52-.14,205,.11,307.55-.31,15.76-.06,25.59,2.24,25.49,21.5-.55,107-.29,214-.48,321,0,4.32-1.67,8.63-2.83,14.25Z"/><path class="cls-2" d="M512.16,322.63c5.1-73.12-17.74-147.5,15.24-217.53C559.48,37,614.81,2.2,689.79.63,749.11-.62,808.47.38,870.28.38c.61,8.71,1.61,16.42,1.63,24.13q.21,81,.05,162c-.22,95.37-78.87,174.48-174.53,175.3-46.68.4-93.36.07-143,.07C603.2,263.38,674.84,188,761.68,125.44,658.64,165.58,577.88,233.46,512.16,322.63Z"/></svg>