<svg id="Capa_1" data-name="Capa 1" xmlns="http://www.w3.org/2000/svg" viewBox="0 0 863.18 840.67"><defs><style>.cls-1{fill:#eb5e2a;}.cls-2{fill:#fff;}</style></defs><title>tickmarck</title><ellipse class="cls-1" cx="431.59" cy="420.34" rx="351.41" ry="351.54"/><ellipse class="cls-2" cx="431.59" cy="420.34" rx="289.45" ry="289.56"/><path class="cls-1" d="M633.69,307.6c.73,15-5.9,22.53-13.25,29.87Q510.87,447,401.47,556.78c-17.56,17.65-34.31,19.09-52.42.68q-51.4-52.28-103.59-103.8c-14.65-14.51-23.77-30.78-7.07-47.9,17-17.42,33.27-7.89,47.68,6.69,23.35,23.61,47.93,46.07,70.15,70.68,13.74,15.21,22.1,15.68,36.9.47,61.74-63.45,124.71-125.72,187.64-188,19-18.81,41.27-17.24,50.47,2.37C633.14,302,633.49,306.79,633.69,307.6Z"/></svg>